<svg width="2480" height="3508" viewBox="0 0 2480 3508" fill="none" xmlns="http://www.w3.org/2000/svg">
<rect width="2480" height="3508" fill="#FFFDF9"/>
<path d="M372.361 412.989V400.56H379.605C383.677 400.56 387.063 399.92 389.761 398.642C392.508 397.316 394.78 395.493 396.58 393.173C398.426 390.806 400.012 388.036 401.338 384.864L403.753 379.04L353.682 265.545H367.957L410.429 362.989L449.634 265.545H463.696L413.483 388.841C411.447 393.67 409.127 397.908 406.523 401.554C403.966 405.152 400.604 407.97 396.438 410.006C392.271 411.994 386.778 412.989 379.96 412.989H372.361ZM477.972 411V301.909H520.94C532.541 301.909 541.679 304.419 548.355 309.438C555.079 314.456 558.44 321.227 558.44 329.75C558.44 336.237 556.57 341.421 552.83 345.304C549.089 349.187 544.07 351.933 537.773 353.543C541.987 354.253 545.893 355.792 549.491 358.159C553.137 360.527 556.097 363.652 558.369 367.534C560.642 371.417 561.778 376.057 561.778 381.455C561.778 387.136 560.358 392.203 557.517 396.653C554.676 401.104 550.675 404.608 545.514 407.165C540.353 409.722 534.245 411 527.19 411H477.972ZM490.045 399.281H527.19C533.866 399.281 539.146 397.577 543.028 394.168C546.911 390.711 548.852 386.118 548.852 380.389C548.852 374.281 547.006 369.404 543.312 365.759C539.667 362.065 534.766 360.219 528.611 360.219H490.045V399.281ZM490.045 348.997H521.722C526.646 348.997 530.907 348.24 534.506 346.724C538.104 345.209 540.874 343.079 542.815 340.332C544.804 337.539 545.775 334.272 545.727 330.531C545.727 325.181 543.549 321.038 539.193 318.102C534.837 315.119 528.753 313.628 520.94 313.628H490.045V348.997ZM619.964 413.486C613.382 413.486 607.369 412.207 601.924 409.651C596.479 407.046 592.147 403.306 588.927 398.429C585.707 393.505 584.097 387.539 584.097 380.531C584.097 375.134 585.115 370.588 587.151 366.895C589.187 363.202 592.076 360.171 595.816 357.804C599.557 355.437 603.984 353.566 609.097 352.193C614.211 350.82 619.845 349.755 626.001 348.997C632.109 348.24 637.27 347.577 641.484 347.009C645.745 346.44 648.988 345.541 651.214 344.31C653.439 343.079 654.552 341.09 654.552 338.344V335.787C654.552 328.353 652.326 322.506 647.876 318.244C643.472 313.936 637.128 311.781 628.842 311.781C620.982 311.781 614.566 313.509 609.594 316.966C604.67 320.422 601.214 324.494 599.225 329.182L587.222 324.849C589.684 318.884 593.094 314.125 597.45 310.574C601.806 306.975 606.683 304.395 612.08 302.832C617.478 301.223 622.947 300.418 628.487 300.418C632.653 300.418 636.986 300.962 641.484 302.051C646.029 303.14 650.243 305.034 654.126 307.733C658.008 310.384 661.157 314.101 663.572 318.884C665.987 323.618 667.194 329.632 667.194 336.923V411H654.552V393.741H653.771C652.255 396.961 650.006 400.086 647.023 403.116C644.04 406.147 640.3 408.633 635.802 410.574C631.304 412.515 626.024 413.486 619.964 413.486ZM621.668 401.909C628.392 401.909 634.216 400.418 639.14 397.435C644.064 394.452 647.852 390.498 650.504 385.574C653.202 380.602 654.552 375.134 654.552 369.168V353.401C653.605 354.3 652.019 355.105 649.793 355.815C647.615 356.526 645.082 357.165 642.194 357.733C639.353 358.254 636.512 358.704 633.671 359.082C630.83 359.461 628.273 359.793 626.001 360.077C619.845 360.834 614.59 362.018 610.234 363.628C605.878 365.238 602.54 367.463 600.219 370.304C597.899 373.098 596.739 376.696 596.739 381.099C596.739 387.728 599.107 392.866 603.842 396.511C608.576 400.11 614.519 401.909 621.668 401.909ZM694.005 411L742.158 355.886L694.644 301.909H710.056L751.888 350.418H759.204V301.909H771.917V350.418H779.09L820.923 301.909H836.335L788.962 355.886L836.974 411H821.349L778.877 362.349H771.917V411H759.204V362.349H752.244L709.63 411H694.005ZM893.987 413.486C887.406 413.486 881.393 412.207 875.947 409.651C870.502 407.046 866.17 403.306 862.95 398.429C859.731 393.505 858.121 387.539 858.121 380.531C858.121 375.134 859.139 370.588 861.175 366.895C863.211 363.202 866.099 360.171 869.839 357.804C873.58 355.437 878.007 353.566 883.121 352.193C888.234 350.82 893.869 349.755 900.024 348.997C906.132 348.24 911.293 347.577 915.507 347.009C919.768 346.44 923.012 345.541 925.237 344.31C927.463 343.079 928.575 341.09 928.575 338.344V335.787C928.575 328.353 926.35 322.506 921.899 318.244C917.496 313.936 911.151 311.781 902.865 311.781C895.005 311.781 888.589 313.509 883.618 316.966C878.694 320.422 875.237 324.494 873.249 329.182L861.246 324.849C863.708 318.884 867.117 314.125 871.473 310.574C875.829 306.975 880.706 304.395 886.104 302.832C891.501 301.223 896.97 300.418 902.51 300.418C906.677 300.418 911.009 300.962 915.507 302.051C920.053 303.14 924.267 305.034 928.149 307.733C932.032 310.384 935.18 314.101 937.595 318.884C940.01 323.618 941.217 329.632 941.217 336.923V411H928.575V393.741H927.794C926.279 396.961 924.03 400.086 921.047 403.116C918.064 406.147 914.323 408.633 909.825 410.574C905.327 412.515 900.048 413.486 893.987 413.486ZM895.692 401.909C902.415 401.909 908.239 400.418 913.163 397.435C918.088 394.452 921.875 390.498 924.527 385.574C927.226 380.602 928.575 375.134 928.575 369.168V353.401C927.628 354.3 926.042 355.105 923.817 355.815C921.639 356.526 919.106 357.165 916.217 357.733C913.376 358.254 910.536 358.704 907.695 359.082C904.854 359.461 902.297 359.793 900.024 360.077C893.869 360.834 888.613 362.018 884.257 363.628C879.901 365.238 876.563 367.463 874.243 370.304C871.923 373.098 870.763 376.696 870.763 381.099C870.763 387.728 873.13 392.866 877.865 396.511C882.6 400.11 888.542 401.909 895.692 401.909ZM1018.95 413.273C1008.77 413.273 999.965 410.905 992.531 406.17C985.098 401.388 979.345 394.783 975.273 386.355C971.248 377.88 969.236 368.126 969.236 357.094C969.236 346.109 971.248 336.355 975.273 327.832C979.345 319.262 984.955 312.562 992.105 307.733C999.302 302.856 1007.61 300.418 1017.03 300.418C1022.95 300.418 1028.66 301.507 1034.15 303.685C1039.64 305.815 1044.57 309.106 1048.92 313.557C1053.33 317.96 1056.81 323.524 1059.36 330.247C1061.92 336.923 1063.2 344.83 1063.2 353.969V360.219H977.972V349.068H1050.27C1050.27 342.061 1048.85 335.763 1046.01 330.176C1043.22 324.542 1039.31 320.091 1034.29 316.824C1029.32 313.557 1023.57 311.923 1017.03 311.923C1010.12 311.923 1004.04 313.77 998.781 317.463C993.526 321.156 989.406 326.033 986.423 332.094C983.488 338.154 981.996 344.783 981.949 351.98V358.656C981.949 367.321 983.44 374.897 986.423 381.384C989.454 387.823 993.739 392.818 999.278 396.369C1004.82 399.92 1011.38 401.696 1018.95 401.696C1024.11 401.696 1028.63 400.891 1032.52 399.281C1036.45 397.671 1039.74 395.517 1042.39 392.818C1045.09 390.072 1047.12 387.065 1048.5 383.798L1060.5 387.705C1058.84 392.297 1056.12 396.535 1052.33 400.418C1048.59 404.3 1043.9 407.425 1038.27 409.793C1032.68 412.113 1026.24 413.273 1018.95 413.273ZM1148.09 393.315L1189.07 301.909H1201.36L1153.13 411H1143.05L1095.39 301.909H1107.46L1148.09 393.315ZM1103.7 301.909V411H1091.06V301.909H1103.7ZM1192.48 411V301.909H1205.12V411H1192.48ZM1249.37 344.026H1281.33C1293.59 344.026 1303.06 347.009 1309.74 352.974C1316.41 358.94 1319.75 367.013 1319.75 377.193C1319.75 383.964 1318.24 389.883 1315.21 394.949C1312.22 400.015 1307.87 403.969 1302.14 406.81C1296.41 409.603 1289.47 411 1281.33 411H1238.86V301.909H1251.57V399.068H1281.33C1289.05 399.068 1295.25 397.222 1299.94 393.528C1304.67 389.835 1307.04 384.58 1307.04 377.761C1307.04 370.801 1304.67 365.427 1299.94 361.639C1295.25 357.851 1289.05 355.957 1281.33 355.957H1249.37V344.026ZM1338.15 411V301.909H1350.79V411H1338.15ZM1428.52 413.273C1418.34 413.273 1409.54 410.905 1402.1 406.17C1394.67 401.388 1388.92 394.783 1384.84 386.355C1380.82 377.88 1378.81 368.126 1378.81 357.094C1378.81 346.109 1380.82 336.355 1384.84 327.832C1388.92 319.262 1394.53 312.562 1401.68 307.733C1408.87 302.856 1417.18 300.418 1426.6 300.418C1432.52 300.418 1438.23 301.507 1443.72 303.685C1449.21 305.815 1454.14 309.106 1458.49 313.557C1462.9 317.96 1466.38 323.524 1468.93 330.247C1471.49 336.923 1472.77 344.83 1472.77 353.969V360.219H1387.54V349.068H1459.84C1459.84 342.061 1458.42 335.763 1455.58 330.176C1452.79 324.542 1448.88 320.091 1443.86 316.824C1438.89 313.557 1433.14 311.923 1426.6 311.923C1419.69 311.923 1413.61 313.77 1408.35 317.463C1403.1 321.156 1398.98 326.033 1395.99 332.094C1393.06 338.154 1391.57 344.783 1391.52 351.98V358.656C1391.52 367.321 1393.01 374.897 1395.99 381.384C1399.02 387.823 1403.31 392.818 1408.85 396.369C1414.39 399.92 1420.95 401.696 1428.52 401.696C1433.68 401.696 1438.2 400.891 1442.09 399.281C1446.02 397.671 1449.31 395.517 1451.96 392.818C1454.66 390.072 1456.69 387.065 1458.07 383.798L1470.07 387.705C1468.41 392.297 1465.69 396.535 1461.9 400.418C1458.16 404.3 1453.47 407.425 1447.84 409.793C1442.25 412.113 1435.81 413.273 1428.52 413.273ZM1621.72 301.909V313.841H1569.52V411H1556.88V301.909H1621.72ZM1685.02 413.273C1675.6 413.273 1667.26 410.882 1660.02 406.099C1652.82 401.317 1647.19 394.712 1643.12 386.284C1639.05 377.809 1637.01 368.031 1637.01 356.952C1637.01 345.777 1639.05 335.953 1643.12 327.477C1647.19 318.955 1652.82 312.326 1660.02 307.591C1667.26 302.809 1675.6 300.418 1685.02 300.418C1694.44 300.418 1702.75 302.809 1709.95 307.591C1717.15 312.373 1722.78 319.002 1726.85 327.477C1730.97 335.953 1733.03 345.777 1733.03 356.952C1733.03 368.031 1731 377.809 1726.92 386.284C1722.85 394.712 1717.19 401.317 1709.95 406.099C1702.75 410.882 1694.44 413.273 1685.02 413.273ZM1685.02 401.696C1692.6 401.696 1699.01 399.66 1704.27 395.588C1709.52 391.516 1713.5 386.095 1716.2 379.324C1718.95 372.553 1720.32 365.096 1720.32 356.952C1720.32 348.808 1718.95 341.327 1716.2 334.509C1713.5 327.69 1709.52 322.222 1704.27 318.102C1699.01 313.983 1692.6 311.923 1685.02 311.923C1677.49 311.923 1671.08 313.983 1665.77 318.102C1660.52 322.222 1656.52 327.69 1653.77 334.509C1651.07 341.327 1649.72 348.808 1649.72 356.952C1649.72 365.096 1651.07 372.553 1653.77 379.324C1656.52 386.095 1660.52 391.516 1665.77 395.588C1671.03 399.66 1677.44 401.696 1685.02 401.696ZM1803.4 413.273C1793.64 413.273 1785.14 410.834 1777.9 405.957C1770.7 401.08 1765.12 394.404 1761.14 385.929C1757.16 377.454 1755.17 367.795 1755.17 356.952C1755.17 346.014 1757.19 336.284 1761.21 327.761C1765.28 319.239 1770.92 312.562 1778.11 307.733C1785.31 302.856 1793.67 300.418 1803.18 300.418C1810.48 300.418 1817.08 301.838 1823 304.679C1828.92 307.473 1833.8 311.426 1837.63 316.54C1841.51 321.606 1843.95 327.525 1844.95 334.295H1832.16C1830.84 328.14 1827.64 322.884 1822.57 318.528C1817.55 314.125 1811.16 311.923 1803.4 311.923C1796.44 311.923 1790.28 313.817 1784.93 317.605C1779.58 321.346 1775.39 326.578 1772.36 333.301C1769.38 339.977 1767.89 347.719 1767.89 356.526C1767.89 365.38 1769.35 373.216 1772.29 380.034C1775.23 386.805 1779.34 392.108 1784.65 395.943C1790 399.778 1796.25 401.696 1803.4 401.696C1808.23 401.696 1812.63 400.796 1816.61 398.997C1820.63 397.151 1823.99 394.546 1826.69 391.185C1829.44 387.823 1831.29 383.822 1832.23 379.182H1845.02C1844.07 385.763 1841.73 391.634 1837.99 396.795C1834.29 401.909 1829.49 405.934 1823.57 408.869C1817.7 411.805 1810.97 413.273 1803.4 413.273ZM1863.09 313.841V301.909H1948.32V313.841H1912.24V411H1899.6V313.841H1863.09ZM1987.68 393.031L2045.28 301.909H2060.41V411H2047.77V319.878L1990.38 411H1975.04V301.909H1987.68V393.031ZM2111.55 265.545L2110.62 369.31H2098.12L2097.2 265.545H2111.55ZM2104.37 412.065C2101.58 412.065 2099.17 411.071 2097.13 409.082C2095.14 407.046 2094.15 404.632 2094.15 401.838C2094.15 398.997 2095.14 396.582 2097.13 394.594C2099.17 392.605 2101.58 391.611 2104.37 391.611C2107.17 391.611 2109.56 392.605 2111.55 394.594C2113.58 396.582 2114.6 398.997 2114.6 401.838C2114.6 403.685 2114.13 405.389 2113.18 406.952C2112.28 408.514 2111.05 409.769 2109.49 410.716C2107.97 411.616 2106.27 412.065 2104.37 412.065Z" fill="#B8860B"/>
<path d="M694.134 1170.99C685.185 1170.99 677.183 1169.38 670.129 1166.16C663.074 1162.89 657.487 1158.37 653.367 1152.59C649.248 1146.82 647.07 1140.16 646.833 1132.64H660.256C660.493 1137.94 662.127 1142.58 665.157 1146.56C668.187 1150.49 672.212 1153.56 677.231 1155.79C682.25 1157.97 687.837 1159.06 693.992 1159.06C700.716 1159.06 706.634 1157.8 711.748 1155.29C716.909 1152.78 720.933 1149.35 723.822 1144.99C726.757 1140.59 728.225 1135.62 728.225 1130.08C728.225 1124.21 726.734 1119.02 723.751 1114.53C720.768 1110.03 716.483 1106.52 710.896 1104.01C705.356 1101.5 698.727 1100.25 691.009 1100.25H682.487V1088.32H691.009C697.307 1088.32 702.87 1087.18 707.7 1084.91C712.576 1082.59 716.412 1079.35 719.205 1075.18C721.999 1071.01 723.396 1066.11 723.396 1060.48C723.396 1055.13 722.188 1050.42 719.773 1046.34C717.359 1042.27 713.95 1039.08 709.546 1036.76C705.19 1034.44 700.1 1033.28 694.276 1033.28C688.642 1033.28 683.481 1034.36 678.793 1036.54C674.106 1038.72 670.318 1041.8 667.43 1045.78C664.589 1049.75 663.074 1054.46 662.884 1059.91H650.029C650.219 1052.33 652.302 1045.68 656.279 1039.95C660.304 1034.18 665.63 1029.68 672.259 1026.46C678.935 1023.19 686.322 1021.56 694.418 1021.56C702.988 1021.56 710.398 1023.31 716.648 1026.81C722.898 1030.32 727.728 1034.98 731.137 1040.8C734.594 1046.58 736.322 1052.95 736.322 1059.91C736.322 1068.2 734.073 1075.3 729.575 1081.22C725.076 1087.09 719.016 1091.16 711.393 1093.43V1094.36C720.673 1096.2 727.965 1100.32 733.268 1106.71C738.618 1113.06 741.293 1120.85 741.293 1130.08C741.293 1137.84 739.257 1144.83 735.185 1151.03C731.113 1157.19 725.526 1162.06 718.424 1165.66C711.369 1169.21 703.272 1170.99 694.134 1170.99ZM803.651 1171.49C797.07 1171.49 791.057 1170.21 785.612 1167.65C780.166 1165.05 775.834 1161.31 772.614 1156.43C769.395 1151.5 767.785 1145.54 767.785 1138.53C767.785 1133.13 768.803 1128.59 770.839 1124.89C772.875 1121.2 775.763 1118.17 779.504 1115.8C783.244 1113.44 787.671 1111.57 792.785 1110.19C797.898 1108.82 803.533 1107.75 809.688 1107C815.796 1106.24 820.957 1105.58 825.171 1105.01C829.433 1104.44 832.676 1103.54 834.901 1102.31C837.127 1101.08 838.239 1099.09 838.239 1096.34V1093.79C838.239 1086.35 836.014 1080.51 831.563 1076.24C827.16 1071.94 820.815 1069.78 812.529 1069.78C804.669 1069.78 798.254 1071.51 793.282 1074.97C788.358 1078.42 784.901 1082.49 782.913 1087.18L770.91 1082.85C773.372 1076.88 776.781 1072.12 781.137 1068.57C785.493 1064.98 790.37 1062.39 795.768 1060.83C801.165 1059.22 806.634 1058.42 812.174 1058.42C816.341 1058.42 820.673 1058.96 825.171 1060.05C829.717 1061.14 833.931 1063.03 837.813 1065.73C841.696 1068.38 844.844 1072.1 847.259 1076.88C849.674 1081.62 850.881 1087.63 850.881 1094.92V1169H838.239V1151.74H837.458C835.943 1154.96 833.694 1158.09 830.711 1161.12C827.728 1164.15 823.987 1166.63 819.489 1168.57C814.991 1170.52 809.712 1171.49 803.651 1171.49ZM805.356 1159.91C812.079 1159.91 817.903 1158.42 822.827 1155.43C827.752 1152.45 831.54 1148.5 834.191 1143.57C836.89 1138.6 838.239 1133.13 838.239 1127.17V1111.4C837.292 1112.3 835.706 1113.11 833.481 1113.82C831.303 1114.53 828.77 1115.16 825.881 1115.73C823.04 1116.25 820.2 1116.7 817.359 1117.08C814.518 1117.46 811.961 1117.79 809.688 1118.08C803.533 1118.83 798.277 1120.02 793.921 1121.63C789.565 1123.24 786.227 1125.46 783.907 1128.3C781.587 1131.1 780.427 1134.7 780.427 1139.1C780.427 1145.73 782.794 1150.87 787.529 1154.51C792.264 1158.11 798.206 1159.91 805.356 1159.91ZM927.124 1171.27C917.371 1171.27 908.871 1168.83 901.627 1163.96C894.43 1159.08 888.843 1152.4 884.866 1143.93C880.888 1135.45 878.9 1125.79 878.9 1114.95C878.9 1104.01 880.912 1094.28 884.937 1085.76C889.009 1077.24 894.643 1070.56 901.84 1065.73C909.037 1060.86 917.394 1058.42 926.911 1058.42C934.203 1058.42 940.808 1059.84 946.727 1062.68C952.645 1065.47 957.522 1069.43 961.357 1074.54C965.24 1079.61 967.678 1085.52 968.673 1092.3H955.888C954.563 1086.14 951.367 1080.88 946.3 1076.53C941.281 1072.12 934.889 1069.92 927.124 1069.92C920.164 1069.92 914.009 1071.82 908.658 1075.61C903.308 1079.35 899.118 1084.58 896.087 1091.3C893.104 1097.98 891.613 1105.72 891.613 1114.53C891.613 1123.38 893.081 1131.22 896.016 1138.03C898.952 1144.8 903.071 1150.11 908.374 1153.94C913.725 1157.78 919.975 1159.7 927.124 1159.7C931.954 1159.7 936.357 1158.8 940.335 1157C944.359 1155.15 947.721 1152.55 950.42 1149.18C953.166 1145.82 955.013 1141.82 955.96 1137.18H968.744C967.797 1143.76 965.453 1149.63 961.712 1154.8C958.019 1159.91 953.213 1163.93 947.295 1166.87C941.424 1169.8 934.7 1171.27 927.124 1171.27ZM1039.94 1171.27C1029.76 1171.27 1020.96 1168.91 1013.52 1164.17C1006.09 1159.39 1000.34 1152.78 996.265 1144.36C992.24 1135.88 990.228 1126.13 990.228 1115.09C990.228 1104.11 992.24 1094.36 996.265 1085.83C1000.34 1077.26 1005.95 1070.56 1013.1 1065.73C1020.29 1060.86 1028.6 1058.42 1038.03 1058.42C1043.94 1058.42 1049.65 1059.51 1055.14 1061.68C1060.64 1063.82 1065.56 1067.11 1069.92 1071.56C1074.32 1075.96 1077.8 1081.52 1080.36 1088.25C1082.91 1094.92 1084.19 1102.83 1084.19 1111.97V1118.22H998.964V1107.07H1071.26C1071.26 1100.06 1069.84 1093.76 1067 1088.18C1064.21 1082.54 1060.3 1078.09 1055.28 1074.82C1050.31 1071.56 1044.56 1069.92 1038.03 1069.92C1031.11 1069.92 1025.03 1071.77 1019.77 1075.46C1014.52 1079.16 1010.4 1084.03 1007.42 1090.09C1004.48 1096.15 1002.99 1102.78 1002.94 1109.98V1116.66C1002.94 1125.32 1004.43 1132.9 1007.42 1139.38C1010.45 1145.82 1014.73 1150.82 1020.27 1154.37C1025.81 1157.92 1032.37 1159.7 1039.94 1159.7C1045.1 1159.7 1049.63 1158.89 1053.51 1157.28C1057.44 1155.67 1060.73 1153.52 1063.38 1150.82C1066.08 1148.07 1068.12 1145.07 1069.49 1141.8L1081.49 1145.7C1079.83 1150.3 1077.11 1154.54 1073.32 1158.42C1069.58 1162.3 1064.9 1165.43 1059.26 1167.79C1053.67 1170.11 1047.24 1171.27 1039.94 1171.27ZM1101.33 1169V1157.07H1104.73C1108.62 1157.07 1111.74 1156.36 1114.11 1154.94C1116.52 1153.47 1118.39 1151.01 1119.72 1147.55C1121.05 1144.09 1122.04 1139.38 1122.7 1133.42C1123.37 1127.45 1123.89 1119.97 1124.27 1110.97L1126.61 1059.91H1195.93V1169H1183.21V1071.84H1138.61L1136.55 1115.24C1136.13 1124.09 1135.42 1131.88 1134.42 1138.6C1133.47 1145.33 1131.91 1150.94 1129.73 1155.43C1127.6 1159.93 1124.62 1163.32 1120.79 1165.59C1117 1167.86 1112.03 1169 1105.87 1169H1101.33ZM1273.54 1171.27C1263.36 1171.27 1254.55 1168.91 1247.12 1164.17C1239.68 1159.39 1233.93 1152.78 1229.86 1144.36C1225.83 1135.88 1223.82 1126.13 1223.82 1115.09C1223.82 1104.11 1225.83 1094.36 1229.86 1085.83C1233.93 1077.26 1239.54 1070.56 1246.69 1065.73C1253.89 1060.86 1262.2 1058.42 1271.62 1058.42C1277.54 1058.42 1283.24 1059.51 1288.74 1061.68C1294.23 1063.82 1299.15 1067.11 1303.51 1071.56C1307.91 1075.96 1311.39 1081.52 1313.95 1088.25C1316.51 1094.92 1317.78 1102.83 1317.78 1111.97V1118.22H1232.56V1107.07H1304.86C1304.86 1100.06 1303.44 1093.76 1300.6 1088.18C1297.8 1082.54 1293.9 1078.09 1288.88 1074.82C1283.91 1071.56 1278.15 1069.92 1271.62 1069.92C1264.71 1069.92 1258.62 1071.77 1253.37 1075.46C1248.11 1079.16 1243.99 1084.03 1241.01 1090.09C1238.07 1096.15 1236.58 1102.78 1236.53 1109.98V1116.66C1236.53 1125.32 1238.03 1132.9 1241.01 1139.38C1244.04 1145.82 1248.32 1150.82 1253.86 1154.37C1259.4 1157.92 1265.96 1159.7 1273.54 1159.7C1278.7 1159.7 1283.22 1158.89 1287.1 1157.28C1291.03 1155.67 1294.32 1153.52 1296.98 1150.82C1299.67 1148.07 1301.71 1145.07 1303.08 1141.8L1315.09 1145.7C1313.43 1150.3 1310.71 1154.54 1306.92 1158.42C1303.18 1162.3 1298.49 1165.43 1292.86 1167.79C1287.27 1170.11 1280.83 1171.27 1273.54 1171.27ZM1419.29 1108.56V1120.49H1355.16V1108.56H1419.29ZM1358.29 1059.91V1169H1345.64V1059.91H1358.29ZM1428.6 1059.91V1169H1415.96V1059.91H1428.6ZM1474.89 1151.03L1532.49 1059.91H1547.61V1169H1534.97V1077.88L1477.59 1169H1462.25V1059.91H1474.89V1151.03ZM1625.1 1171.27C1614.92 1171.27 1606.11 1168.91 1598.68 1164.17C1591.25 1159.39 1585.49 1152.78 1581.42 1144.36C1577.4 1135.88 1575.38 1126.13 1575.38 1115.09C1575.38 1104.11 1577.4 1094.36 1581.42 1085.83C1585.49 1077.26 1591.1 1070.56 1598.25 1065.73C1605.45 1060.86 1613.76 1058.42 1623.18 1058.42C1629.1 1058.42 1634.81 1059.51 1640.3 1061.68C1645.79 1063.82 1650.72 1067.11 1655.07 1071.56C1659.48 1075.96 1662.96 1081.52 1665.51 1088.25C1668.07 1094.92 1669.35 1102.83 1669.35 1111.97V1118.22H1584.12V1107.07H1656.42C1656.42 1100.06 1655 1093.76 1652.16 1088.18C1649.37 1082.54 1645.46 1078.09 1640.44 1074.82C1635.47 1071.56 1629.72 1069.92 1623.18 1069.92C1616.27 1069.92 1610.19 1071.77 1604.93 1075.46C1599.67 1079.16 1595.55 1084.03 1592.57 1090.09C1589.64 1096.15 1588.14 1102.78 1588.1 1109.98V1116.66C1588.1 1125.32 1589.59 1132.9 1592.57 1139.38C1595.6 1145.82 1599.89 1150.82 1605.43 1154.37C1610.97 1157.92 1617.52 1159.7 1625.1 1159.7C1630.26 1159.7 1634.78 1158.89 1638.67 1157.28C1642.6 1155.67 1645.89 1153.52 1648.54 1150.82C1651.24 1148.07 1653.27 1145.07 1654.65 1141.8L1666.65 1145.7C1664.99 1150.3 1662.27 1154.54 1658.48 1158.42C1654.74 1162.3 1650.05 1165.43 1644.42 1167.79C1638.83 1170.11 1632.39 1171.27 1625.1 1171.27ZM1753.46 1169V1059.91H1796.42C1808.03 1059.91 1817.16 1062.42 1823.84 1067.44C1830.56 1072.46 1833.92 1079.23 1833.92 1087.75C1833.92 1094.24 1832.05 1099.42 1828.31 1103.3C1824.57 1107.19 1819.55 1109.93 1813.26 1111.54C1817.47 1112.25 1821.38 1113.79 1824.98 1116.16C1828.62 1118.53 1831.58 1121.65 1833.85 1125.53C1836.13 1129.42 1837.26 1134.06 1837.26 1139.45C1837.26 1145.14 1835.84 1150.2 1833 1154.65C1830.16 1159.1 1826.16 1162.61 1821 1165.16C1815.84 1167.72 1809.73 1169 1802.67 1169H1753.46ZM1765.53 1157.28H1802.67C1809.35 1157.28 1814.63 1155.58 1818.51 1152.17C1822.4 1148.71 1824.34 1144.12 1824.34 1138.39C1824.34 1132.28 1822.49 1127.4 1818.8 1123.76C1815.15 1120.07 1810.25 1118.22 1804.1 1118.22H1765.53V1157.28ZM1765.53 1107H1797.21C1802.13 1107 1806.39 1106.24 1809.99 1104.72C1813.59 1103.21 1816.36 1101.08 1818.3 1098.33C1820.29 1095.54 1821.26 1092.27 1821.21 1088.53C1821.21 1083.18 1819.03 1079.04 1814.68 1076.1C1810.32 1073.12 1804.24 1071.63 1796.42 1071.63H1765.53V1107ZM819.667 1301.91V1313.84H767.465V1411H754.823V1301.91H819.667ZM882.966 1413.27C873.544 1413.27 865.21 1410.88 857.966 1406.1C850.769 1401.32 845.134 1394.71 841.062 1386.28C836.991 1377.81 834.955 1368.03 834.955 1356.95C834.955 1345.78 836.991 1335.95 841.062 1327.48C845.134 1318.95 850.769 1312.33 857.966 1307.59C865.21 1302.81 873.544 1300.42 882.966 1300.42C892.388 1300.42 900.698 1302.81 907.895 1307.59C915.092 1312.37 920.726 1319 924.798 1327.48C928.918 1335.95 930.977 1345.78 930.977 1356.95C930.977 1368.03 928.941 1377.81 924.869 1386.28C920.797 1394.71 915.139 1401.32 907.895 1406.1C900.698 1410.88 892.388 1413.27 882.966 1413.27ZM882.966 1401.7C890.542 1401.7 896.957 1399.66 902.213 1395.59C907.469 1391.52 911.446 1386.09 914.145 1379.32C916.891 1372.55 918.264 1365.1 918.264 1356.95C918.264 1348.81 916.891 1341.33 914.145 1334.51C911.446 1327.69 907.469 1322.22 902.213 1318.1C896.957 1313.98 890.542 1311.92 882.966 1311.92C875.438 1311.92 869.022 1313.98 863.719 1318.1C858.463 1322.22 854.462 1327.69 851.716 1334.51C849.017 1341.33 847.668 1348.81 847.668 1356.95C847.668 1365.1 849.017 1372.55 851.716 1379.32C854.462 1386.09 858.463 1391.52 863.719 1395.59C868.974 1399.66 875.39 1401.7 882.966 1401.7ZM1001.34 1413.27C991.589 1413.27 983.09 1410.83 975.846 1405.96C968.649 1401.08 963.062 1394.4 959.085 1385.93C955.107 1377.45 953.119 1367.79 953.119 1356.95C953.119 1346.01 955.131 1336.28 959.156 1327.76C963.228 1319.24 968.862 1312.56 976.059 1307.73C983.256 1302.86 991.613 1300.42 1001.13 1300.42C1008.42 1300.42 1015.03 1301.84 1020.95 1304.68C1026.86 1307.47 1031.74 1311.43 1035.58 1316.54C1039.46 1321.61 1041.9 1327.52 1042.89 1334.3H1030.11C1028.78 1328.14 1025.59 1322.88 1020.52 1318.53C1015.5 1314.12 1009.11 1311.92 1001.34 1311.92C994.383 1311.92 988.228 1313.82 982.877 1317.61C977.527 1321.35 973.336 1326.58 970.306 1333.3C967.323 1339.98 965.832 1347.72 965.832 1356.53C965.832 1365.38 967.299 1373.22 970.235 1380.03C973.171 1386.8 977.29 1392.11 982.593 1395.94C987.943 1399.78 994.193 1401.7 1001.34 1401.7C1006.17 1401.7 1010.58 1400.8 1014.55 1399C1018.58 1397.15 1021.94 1394.55 1024.64 1391.18C1027.38 1387.82 1029.23 1383.82 1030.18 1379.18H1042.96C1042.02 1385.76 1039.67 1391.63 1035.93 1396.8C1032.24 1401.91 1027.43 1405.93 1021.51 1408.87C1015.64 1411.8 1008.92 1413.27 1001.34 1413.27ZM1061.04 1313.84V1301.91H1146.26V1313.84H1110.19V1411H1097.54V1313.84H1061.04ZM1185.63 1393.03L1243.23 1301.91H1258.36V1411H1245.71V1319.88L1188.33 1411H1172.99V1301.91H1185.63V1393.03ZM1365.39 1350.56V1362.49H1301.25V1350.56H1365.39ZM1304.38 1301.91V1411H1291.74V1301.91H1304.38ZM1374.69 1301.91V1411H1362.05V1301.91H1374.69ZM1420.98 1393.03L1478.58 1301.91H1493.71V1411H1481.07V1319.88L1423.68 1411H1408.34V1301.91H1420.98V1393.03ZM1609.83 1301.91V1399H1621.41V1446.3H1608.76V1411H1527.23V1301.91H1539.94V1399.07H1597.12V1301.91H1609.83ZM1657.18 1451.91C1654.68 1451.91 1652.33 1451.67 1650.15 1451.2C1647.98 1450.73 1646.25 1450.2 1644.97 1449.64L1648.38 1438.49C1652.69 1439.81 1656.52 1440.29 1659.88 1439.91C1663.25 1439.57 1666.23 1438.06 1668.83 1435.36C1671.44 1432.71 1673.76 1428.64 1675.79 1423.14L1679.77 1412.07L1639.64 1301.91H1653.35L1685.74 1394.31H1686.73L1719.12 1301.91H1732.82L1686.66 1428.26C1684.72 1433.51 1682.33 1437.89 1679.49 1441.4C1676.64 1444.95 1673.35 1447.58 1669.61 1449.28C1665.92 1451.03 1661.78 1451.91 1657.18 1451.91ZM823.325 1553H809.972C808.978 1548.03 807.179 1543.44 804.575 1539.22C802.018 1534.96 798.798 1531.24 794.915 1528.07C791.033 1524.9 786.63 1522.44 781.705 1520.68C776.781 1518.93 771.454 1518.06 765.725 1518.06C756.54 1518.06 748.159 1520.45 740.583 1525.23C733.055 1530.01 727.018 1537.04 722.472 1546.32C717.974 1555.56 715.725 1566.87 715.725 1580.27C715.725 1593.77 717.974 1605.13 722.472 1614.36C727.018 1623.6 733.055 1630.6 740.583 1635.39C748.159 1640.12 756.54 1642.49 765.725 1642.49C771.454 1642.49 776.781 1641.61 781.705 1639.86C786.63 1638.11 791.033 1635.67 794.915 1632.55C798.798 1629.37 802.018 1625.66 804.575 1621.39C807.179 1617.13 808.978 1612.52 809.972 1607.55H823.325C822.141 1614.22 819.915 1620.45 816.648 1626.22C813.429 1631.95 809.309 1636.97 804.29 1641.28C799.319 1645.59 793.59 1648.95 787.103 1651.37C780.616 1653.78 773.49 1654.99 765.725 1654.99C753.509 1654.99 742.666 1651.93 733.197 1645.83C723.727 1639.67 716.293 1631.01 710.896 1619.83C705.545 1608.66 702.87 1595.47 702.87 1580.27C702.87 1565.07 705.545 1551.89 710.896 1540.71C716.293 1529.54 723.727 1520.9 733.197 1514.79C742.666 1508.63 753.509 1505.56 765.725 1505.56C773.49 1505.56 780.616 1506.76 787.103 1509.18C793.59 1511.55 799.319 1514.91 804.29 1519.26C809.309 1523.57 813.429 1528.59 816.648 1534.32C819.915 1540.05 822.141 1546.28 823.325 1553ZM845.714 1519.48V1507.55H951.183V1519.48H905.089V1653H891.808V1519.48H845.714ZM981.084 1653V1507.55H1028.03C1038.35 1507.55 1046.97 1509.53 1053.88 1513.51C1060.84 1517.44 1066.07 1522.79 1069.58 1529.56C1073.13 1536.33 1074.9 1543.96 1074.9 1552.43C1074.9 1560.91 1073.15 1568.55 1069.65 1575.37C1066.15 1582.14 1060.94 1587.52 1054.02 1591.49C1047.11 1595.42 1038.52 1597.39 1028.24 1597.39H991.311V1585.46H1027.89C1035.51 1585.46 1041.83 1584.04 1046.85 1581.2C1051.87 1578.31 1055.61 1574.38 1058.07 1569.41C1060.58 1564.43 1061.84 1558.78 1061.84 1552.43C1061.84 1546.09 1060.58 1540.43 1058.07 1535.46C1055.61 1530.49 1051.85 1526.58 1046.78 1523.74C1041.76 1520.9 1035.39 1519.48 1027.67 1519.48H994.365V1653H981.084ZM1225.33 1580.27C1225.33 1595.42 1222.63 1608.61 1217.23 1619.83C1211.84 1631.01 1204.4 1639.67 1194.93 1645.83C1185.51 1651.93 1174.67 1654.99 1162.4 1654.99C1150.14 1654.99 1139.28 1651.93 1129.81 1645.83C1120.38 1639.67 1112.97 1631.01 1107.58 1619.83C1102.22 1608.61 1099.55 1595.42 1099.55 1580.27C1099.55 1565.12 1102.22 1551.96 1107.58 1540.78C1112.97 1529.56 1120.41 1520.9 1129.88 1514.79C1139.35 1508.63 1150.19 1505.56 1162.4 1505.56C1174.67 1505.56 1185.51 1508.63 1194.93 1514.79C1204.4 1520.9 1211.84 1529.56 1217.23 1540.78C1222.63 1551.96 1225.33 1565.12 1225.33 1580.27ZM1212.4 1580.27C1212.4 1567.25 1210.23 1556.1 1205.87 1546.82C1201.51 1537.49 1195.57 1530.37 1188.04 1525.44C1180.52 1520.52 1171.97 1518.06 1162.4 1518.06C1152.89 1518.06 1144.37 1520.52 1136.84 1525.44C1129.31 1530.37 1123.34 1537.47 1118.94 1546.75C1114.58 1556.03 1112.4 1567.2 1112.4 1580.27C1112.4 1593.29 1114.58 1604.44 1118.94 1613.72C1123.29 1623 1129.24 1630.13 1136.77 1635.1C1144.29 1640.03 1152.84 1642.49 1162.4 1642.49C1171.97 1642.49 1180.52 1640.03 1188.04 1635.1C1195.62 1630.18 1201.59 1623.08 1205.94 1613.8C1210.3 1604.47 1212.45 1593.29 1212.4 1580.27ZM1342.39 1507.55V1519.48H1270.73V1653H1257.45V1507.55H1342.39ZM1485.49 1580.27C1485.49 1595.42 1482.79 1608.61 1477.39 1619.83C1471.99 1631.01 1464.56 1639.67 1455.09 1645.83C1445.67 1651.93 1434.82 1654.99 1422.56 1654.99C1410.3 1654.99 1399.43 1651.93 1389.96 1645.83C1380.54 1639.67 1373.13 1631.01 1367.73 1619.83C1362.38 1608.61 1359.71 1595.42 1359.71 1580.27C1359.71 1565.12 1362.38 1551.96 1367.73 1540.78C1373.13 1529.56 1380.56 1520.9 1390.03 1514.79C1399.5 1508.63 1410.35 1505.56 1422.56 1505.56C1434.82 1505.56 1445.67 1508.63 1455.09 1514.79C1464.56 1520.9 1471.99 1529.56 1477.39 1540.78C1482.79 1551.96 1485.49 1565.12 1485.49 1580.27ZM1472.56 1580.27C1472.56 1567.25 1470.38 1556.1 1466.03 1546.82C1461.67 1537.49 1455.73 1530.37 1448.2 1525.44C1440.67 1520.52 1432.13 1518.06 1422.56 1518.06C1413.04 1518.06 1404.52 1520.52 1396.99 1525.44C1389.46 1530.37 1383.5 1537.47 1379.1 1546.75C1374.74 1556.03 1372.56 1567.2 1372.56 1580.27C1372.56 1593.29 1374.74 1604.44 1379.1 1613.72C1383.45 1623 1389.39 1630.13 1396.92 1635.1C1404.45 1640.03 1413 1642.49 1422.56 1642.49C1432.13 1642.49 1440.67 1640.03 1448.2 1635.1C1455.78 1630.18 1461.74 1623.08 1466.1 1613.8C1470.45 1604.47 1472.61 1593.29 1472.56 1580.27ZM1571.37 1653V1543.91H1653.97V1653H1641.26V1555.84H1584.08V1653H1571.37ZM1729.84 1655.27C1720.42 1655.27 1712.09 1652.88 1704.84 1648.1C1697.64 1643.32 1692.01 1636.71 1687.94 1628.28C1683.87 1619.81 1681.83 1610.03 1681.83 1598.95C1681.83 1587.78 1683.87 1577.95 1687.94 1569.48C1692.01 1560.95 1697.64 1554.33 1704.84 1549.59C1712.09 1544.81 1720.42 1542.42 1729.84 1542.42C1739.26 1542.42 1747.57 1544.81 1754.77 1549.59C1761.97 1554.37 1767.6 1561 1771.67 1569.48C1775.79 1577.95 1777.85 1587.78 1777.85 1598.95C1777.85 1610.03 1775.82 1619.81 1771.74 1628.28C1767.67 1636.71 1762.01 1643.32 1754.77 1648.1C1747.57 1652.88 1739.26 1655.27 1729.84 1655.27ZM1729.84 1643.7C1737.42 1643.7 1743.83 1641.66 1749.09 1637.59C1754.34 1633.52 1758.32 1628.09 1761.02 1621.32C1763.77 1614.55 1765.14 1607.1 1765.14 1598.95C1765.14 1590.81 1763.77 1583.33 1761.02 1576.51C1758.32 1569.69 1754.34 1564.22 1749.09 1560.1C1743.83 1555.98 1737.42 1553.92 1729.84 1553.92C1722.31 1553.92 1715.9 1555.98 1710.59 1560.1C1705.34 1564.22 1701.34 1569.69 1698.59 1576.51C1695.89 1583.33 1694.54 1590.81 1694.54 1598.95C1694.54 1607.1 1695.89 1614.55 1698.59 1621.32C1701.34 1628.09 1705.34 1633.52 1710.59 1637.59C1715.85 1641.66 1722.27 1643.7 1729.84 1643.7ZM664.438 1895V1785.91H747.037V1895H734.324V1797.84H677.151V1895H664.438ZM810.975 1897.49C804.394 1897.49 798.381 1896.21 792.936 1893.65C787.491 1891.05 783.158 1887.31 779.939 1882.43C776.719 1877.5 775.109 1871.54 775.109 1864.53C775.109 1859.13 776.127 1854.59 778.163 1850.89C780.199 1847.2 783.087 1844.17 786.828 1841.8C790.568 1839.44 794.995 1837.57 800.109 1836.19C805.223 1834.82 810.857 1833.75 817.012 1833C823.12 1832.24 828.281 1831.58 832.495 1831.01C836.757 1830.44 840 1829.54 842.225 1828.31C844.451 1827.08 845.564 1825.09 845.564 1822.34V1819.79C845.564 1812.35 843.338 1806.51 838.887 1802.24C834.484 1797.94 828.139 1795.78 819.853 1795.78C811.993 1795.78 805.578 1797.51 800.606 1800.97C795.682 1804.42 792.225 1808.49 790.237 1813.18L778.234 1808.85C780.696 1802.88 784.105 1798.12 788.461 1794.57C792.817 1790.98 797.694 1788.39 803.092 1786.83C808.49 1785.22 813.958 1784.42 819.498 1784.42C823.665 1784.42 827.997 1784.96 832.495 1786.05C837.041 1787.14 841.255 1789.03 845.137 1791.73C849.02 1794.38 852.169 1798.1 854.583 1802.88C856.998 1807.62 858.206 1813.63 858.206 1820.92V1895H845.564V1877.74H844.782C843.267 1880.96 841.018 1884.09 838.035 1887.12C835.052 1890.15 831.312 1892.63 826.814 1894.57C822.315 1896.52 817.036 1897.49 810.975 1897.49ZM812.68 1885.91C819.404 1885.91 825.227 1884.42 830.152 1881.43C835.076 1878.45 838.864 1874.5 841.515 1869.57C844.214 1864.6 845.564 1859.13 845.564 1853.17V1837.4C844.617 1838.3 843.03 1839.11 840.805 1839.82C838.627 1840.53 836.094 1841.16 833.206 1841.73C830.365 1842.25 827.524 1842.7 824.683 1843.08C821.842 1843.46 819.285 1843.79 817.012 1844.08C810.857 1844.83 805.601 1846.02 801.245 1847.63C796.889 1849.24 793.551 1851.46 791.231 1854.3C788.911 1857.1 787.751 1860.7 787.751 1865.1C787.751 1871.73 790.118 1876.87 794.853 1880.51C799.588 1884.11 805.53 1885.91 812.68 1885.91ZM934.449 1897.27C924.695 1897.27 916.196 1894.83 908.951 1889.96C901.754 1885.08 896.167 1878.4 892.19 1869.93C888.213 1861.45 886.224 1851.79 886.224 1840.95C886.224 1830.01 888.236 1820.28 892.261 1811.76C896.333 1803.24 901.967 1796.56 909.164 1791.73C916.361 1786.86 924.718 1784.42 934.235 1784.42C941.527 1784.42 948.132 1785.84 954.051 1788.68C959.969 1791.47 964.846 1795.43 968.681 1800.54C972.564 1805.61 975.002 1811.52 975.997 1818.3H963.213C961.887 1812.14 958.691 1806.88 953.625 1802.53C948.606 1798.12 942.214 1795.92 934.449 1795.92C927.488 1795.92 921.333 1797.82 915.983 1801.61C910.632 1805.35 906.442 1810.58 903.412 1817.3C900.429 1823.98 898.937 1831.72 898.937 1840.53C898.937 1849.38 900.405 1857.22 903.341 1864.03C906.276 1870.8 910.395 1876.11 915.699 1879.94C921.049 1883.78 927.299 1885.7 934.449 1885.7C939.278 1885.7 943.681 1884.8 947.659 1883C951.683 1881.15 955.045 1878.55 957.744 1875.18C960.49 1871.82 962.337 1867.82 963.284 1863.18H976.068C975.121 1869.76 972.777 1875.63 969.037 1880.8C965.343 1885.91 960.538 1889.93 954.619 1892.87C948.748 1895.8 942.024 1897.27 934.449 1897.27ZM1003.31 1895V1785.91H1085.9V1895H1073.19V1797.84H1016.02V1895H1003.31ZM1161.77 1897.27C1152.35 1897.27 1144.02 1894.88 1136.77 1890.1C1129.58 1885.32 1123.94 1878.71 1119.87 1870.28C1115.8 1861.81 1113.76 1852.03 1113.76 1840.95C1113.76 1829.78 1115.8 1819.95 1119.87 1811.48C1123.94 1802.95 1129.58 1796.33 1136.77 1791.59C1144.02 1786.81 1152.35 1784.42 1161.77 1784.42C1171.2 1784.42 1179.51 1786.81 1186.7 1791.59C1193.9 1796.37 1199.53 1803 1203.61 1811.48C1207.73 1819.95 1209.79 1829.78 1209.79 1840.95C1209.79 1852.03 1207.75 1861.81 1203.68 1870.28C1199.61 1878.71 1193.95 1885.32 1186.7 1890.1C1179.51 1894.88 1171.2 1897.27 1161.77 1897.27ZM1161.77 1885.7C1169.35 1885.7 1175.77 1883.66 1181.02 1879.59C1186.28 1875.52 1190.25 1870.09 1192.95 1863.32C1195.7 1856.55 1197.07 1849.1 1197.07 1840.95C1197.07 1832.81 1195.7 1825.33 1192.95 1818.51C1190.25 1811.69 1186.28 1806.22 1181.02 1802.1C1175.77 1797.98 1169.35 1795.92 1161.77 1795.92C1154.25 1795.92 1147.83 1797.98 1142.53 1802.1C1137.27 1806.22 1133.27 1811.69 1130.52 1818.51C1127.83 1825.33 1126.48 1832.81 1126.48 1840.95C1126.48 1849.1 1127.83 1856.55 1130.52 1863.32C1133.27 1870.09 1137.27 1875.52 1142.53 1879.59C1147.78 1883.66 1154.2 1885.7 1161.77 1885.7ZM1237.54 1935.91V1785.91H1249.82V1806.72H1251.32C1252.83 1803.45 1254.91 1800.11 1257.57 1796.7C1260.22 1793.25 1263.72 1790.34 1268.08 1787.97C1272.48 1785.6 1278.02 1784.42 1284.7 1784.42C1293.69 1784.42 1301.55 1786.79 1308.28 1791.52C1315.05 1796.21 1320.3 1802.79 1324.04 1811.26C1327.83 1819.69 1329.73 1829.52 1329.73 1840.74C1329.73 1852.01 1327.83 1861.88 1324.04 1870.36C1320.3 1878.83 1315.05 1885.44 1308.28 1890.17C1301.55 1894.91 1293.74 1897.27 1284.84 1897.27C1278.26 1897.27 1272.74 1896.09 1268.29 1893.72C1263.89 1891.35 1260.31 1888.44 1257.57 1884.99C1254.87 1881.48 1252.78 1878.07 1251.32 1874.76H1250.18V1935.91H1237.54ZM1250.04 1840.53C1250.04 1849.33 1251.34 1857.14 1253.94 1863.96C1256.6 1870.73 1260.38 1876.06 1265.31 1879.94C1270.28 1883.78 1276.29 1885.7 1283.35 1885.7C1290.59 1885.7 1296.7 1883.71 1301.67 1879.73C1306.69 1875.71 1310.5 1870.28 1313.11 1863.47C1315.76 1856.65 1317.08 1849 1317.08 1840.53C1317.08 1832.14 1315.78 1824.59 1313.18 1817.87C1310.62 1811.15 1306.83 1805.82 1301.81 1801.89C1296.79 1797.91 1290.64 1795.92 1283.35 1795.92C1276.25 1795.92 1270.21 1797.84 1265.24 1801.68C1260.27 1805.46 1256.48 1810.72 1253.87 1817.44C1251.32 1824.12 1250.04 1831.81 1250.04 1840.53ZM1342.78 1797.84V1785.91H1428V1797.84H1391.92V1895H1379.28V1797.84H1342.78ZM1463.53 1935.91C1461.02 1935.91 1458.68 1935.67 1456.5 1935.2C1454.32 1934.73 1452.59 1934.2 1451.32 1933.64L1454.73 1922.49C1459.03 1923.81 1462.87 1924.29 1466.23 1923.91C1469.59 1923.57 1472.58 1922.06 1475.18 1919.36C1477.78 1916.71 1480.1 1912.64 1482.14 1907.14L1486.12 1896.07L1445.99 1785.91H1459.7L1492.08 1878.31H1493.08L1525.46 1785.91H1539.17L1493.01 1912.26C1491.07 1917.51 1488.67 1921.89 1485.83 1925.4C1482.99 1928.95 1479.7 1931.58 1475.96 1933.28C1472.27 1935.03 1468.13 1935.91 1463.53 1935.91ZM1693.81 1834.56V1846.49H1629.67V1834.56H1693.81ZM1632.8 1785.91V1895H1620.16V1785.91H1632.8ZM1703.11 1785.91V1895H1690.47V1785.91H1703.11ZM1767.23 1897.49C1760.64 1897.49 1754.63 1896.21 1749.19 1893.65C1743.74 1891.05 1739.41 1887.31 1736.19 1882.43C1732.97 1877.5 1731.36 1871.54 1731.36 1864.53C1731.36 1859.13 1732.38 1854.59 1734.41 1850.89C1736.45 1847.2 1739.34 1844.17 1743.08 1841.8C1746.82 1839.44 1751.25 1837.57 1756.36 1836.19C1761.47 1834.82 1767.11 1833.75 1773.26 1833C1779.37 1832.24 1784.53 1831.58 1788.75 1831.01C1793.01 1830.44 1796.25 1829.54 1798.48 1828.31C1800.7 1827.08 1801.81 1825.09 1801.81 1822.34V1819.79C1801.81 1812.35 1799.59 1806.51 1795.14 1802.24C1790.73 1797.94 1784.39 1795.78 1776.1 1795.78C1768.24 1795.78 1761.83 1797.51 1756.86 1800.97C1751.93 1804.42 1748.48 1808.49 1746.49 1813.18L1734.48 1808.85C1736.95 1802.88 1740.36 1798.12 1744.71 1794.57C1749.07 1790.98 1753.94 1788.39 1759.34 1786.83C1764.74 1785.22 1770.21 1784.42 1775.75 1784.42C1779.91 1784.42 1784.25 1784.96 1788.75 1786.05C1793.29 1787.14 1797.5 1789.03 1801.39 1791.73C1805.27 1794.38 1808.42 1798.1 1810.83 1802.88C1813.25 1807.62 1814.46 1813.63 1814.46 1820.92V1895H1801.81V1877.74H1801.03C1799.52 1880.96 1797.27 1884.09 1794.29 1887.12C1791.3 1890.15 1787.56 1892.63 1783.06 1894.57C1778.57 1896.52 1773.29 1897.49 1767.23 1897.49ZM1768.93 1885.91C1775.65 1885.91 1781.48 1884.42 1786.4 1881.43C1791.33 1878.45 1795.11 1874.5 1797.77 1869.57C1800.46 1864.6 1801.81 1859.13 1801.81 1853.17V1837.4C1800.87 1838.3 1799.28 1839.11 1797.06 1839.82C1794.88 1840.53 1792.34 1841.16 1789.46 1841.73C1786.61 1842.25 1783.77 1842.7 1780.93 1843.08C1778.09 1843.46 1775.54 1843.79 1773.26 1844.08C1767.11 1844.83 1761.85 1846.02 1757.5 1847.63C1753.14 1849.24 1749.8 1851.46 1747.48 1854.3C1745.16 1857.1 1744 1860.7 1744 1865.1C1744 1871.73 1746.37 1876.87 1751.1 1880.51C1755.84 1884.11 1761.78 1885.91 1768.93 1885.91ZM526.015 2137V2027.91H538.657V2076.99H550.517L591.071 2027.91H607.407L563.657 2080.39L608.401 2137H592.066L554.424 2088.92H538.657V2137H526.015ZM659.608 2139.49C653.027 2139.49 647.014 2138.21 641.569 2135.65C636.123 2133.05 631.791 2129.31 628.571 2124.43C625.352 2119.5 623.742 2113.54 623.742 2106.53C623.742 2101.13 624.76 2096.59 626.796 2092.89C628.832 2089.2 631.72 2086.17 635.461 2083.8C639.201 2081.44 643.628 2079.57 648.742 2078.19C653.855 2076.82 659.49 2075.75 665.645 2075C671.753 2074.24 676.914 2073.58 681.128 2073.01C685.39 2072.44 688.633 2071.54 690.858 2070.31C693.084 2069.08 694.196 2067.09 694.196 2064.34V2061.79C694.196 2054.35 691.971 2048.51 687.52 2044.24C683.117 2039.94 676.772 2037.78 668.486 2037.78C660.626 2037.78 654.211 2039.51 649.239 2042.97C644.315 2046.42 640.858 2050.49 638.87 2055.18L626.867 2050.85C629.329 2044.88 632.738 2040.12 637.094 2036.57C641.45 2032.98 646.327 2030.39 651.725 2028.83C657.123 2027.22 662.591 2026.42 668.131 2026.42C672.298 2026.42 676.63 2026.96 681.128 2028.05C685.674 2029.14 689.888 2031.03 693.77 2033.73C697.653 2036.38 700.801 2040.1 703.216 2044.88C705.631 2049.62 706.838 2055.63 706.838 2062.92V2137H694.196V2119.74H693.415C691.9 2122.96 689.651 2126.09 686.668 2129.12C683.685 2132.15 679.944 2134.63 675.446 2136.57C670.948 2138.52 665.669 2139.49 659.608 2139.49ZM661.313 2127.91C668.036 2127.91 673.86 2126.42 678.784 2123.43C683.709 2120.45 687.497 2116.5 690.148 2111.57C692.847 2106.6 694.196 2101.13 694.196 2095.17V2079.4C693.249 2080.3 691.663 2081.11 689.438 2081.82C687.26 2082.53 684.727 2083.16 681.838 2083.73C678.998 2084.25 676.157 2084.7 673.316 2085.08C670.475 2085.46 667.918 2085.79 665.645 2086.08C659.49 2086.83 654.234 2088.02 649.878 2089.63C645.522 2091.24 642.184 2093.46 639.864 2096.3C637.544 2099.1 636.384 2102.7 636.384 2107.1C636.384 2113.73 638.751 2118.87 643.486 2122.51C648.221 2126.11 654.163 2127.91 661.313 2127.91ZM733.65 2137L781.803 2081.89L734.289 2027.91H749.701L791.533 2076.42H798.848V2027.91H811.561V2076.42H818.735L860.567 2027.91H875.979L828.607 2081.89L876.618 2137H860.993L818.522 2088.35H811.561V2137H798.848V2088.35H791.888L749.275 2137H733.65ZM890.237 2168.04V2125.07H899.683C902.05 2122.42 904.11 2119.55 905.862 2116.47C907.614 2113.4 909.129 2109.89 910.407 2105.96C911.733 2101.99 912.846 2097.37 913.745 2092.11C914.645 2086.81 915.403 2080.63 916.018 2073.58L919.995 2027.91H984.555V2125.07H1000.75V2168.04H988.106V2137H902.95V2168.04H890.237ZM914.243 2125.07H971.913V2039.84H931.785L928.518 2073.58C927.382 2085.04 925.772 2095.03 923.689 2103.55C921.605 2112.07 918.457 2119.24 914.243 2125.07ZM1067.24 2139.27C1057.82 2139.27 1049.49 2136.88 1042.24 2132.1C1035.05 2127.32 1029.41 2120.71 1025.34 2112.28C1021.27 2103.81 1019.23 2094.03 1019.23 2082.95C1019.23 2071.78 1021.27 2061.95 1025.34 2053.48C1029.41 2044.95 1035.05 2038.33 1042.24 2033.59C1049.49 2028.81 1057.82 2026.42 1067.24 2026.42C1076.67 2026.42 1084.98 2028.81 1092.17 2033.59C1099.37 2038.37 1105 2045 1109.08 2053.48C1113.19 2061.95 1115.25 2071.78 1115.25 2082.95C1115.25 2094.03 1113.22 2103.81 1109.15 2112.28C1105.07 2120.71 1099.42 2127.32 1092.17 2132.1C1084.98 2136.88 1076.67 2139.27 1067.24 2139.27ZM1067.24 2127.7C1074.82 2127.7 1081.23 2125.66 1086.49 2121.59C1091.75 2117.52 1095.72 2112.09 1098.42 2105.32C1101.17 2098.55 1102.54 2091.1 1102.54 2082.95C1102.54 2074.81 1101.17 2067.33 1098.42 2060.51C1095.72 2053.69 1091.75 2048.22 1086.49 2044.1C1081.23 2039.98 1074.82 2037.92 1067.24 2037.92C1059.71 2037.92 1053.3 2039.98 1048 2044.1C1042.74 2048.22 1038.74 2053.69 1035.99 2060.51C1033.29 2067.33 1031.94 2074.81 1031.94 2082.95C1031.94 2091.1 1033.29 2098.55 1035.99 2105.32C1038.74 2112.09 1042.74 2117.52 1048 2121.59C1053.25 2125.66 1059.67 2127.7 1067.24 2127.7ZM1207.85 2027.91V2039.84H1155.65V2137H1143.01V2027.91H1207.85ZM1271.15 2139.27C1261.73 2139.27 1253.39 2136.88 1246.15 2132.1C1238.95 2127.32 1233.32 2120.71 1229.25 2112.28C1225.17 2103.81 1223.14 2094.03 1223.14 2082.95C1223.14 2071.78 1225.17 2061.95 1229.25 2053.48C1233.32 2044.95 1238.95 2038.33 1246.15 2033.59C1253.39 2028.81 1261.73 2026.42 1271.15 2026.42C1280.57 2026.42 1288.88 2028.81 1296.08 2033.59C1303.28 2038.37 1308.91 2045 1312.98 2053.48C1317.1 2061.95 1319.16 2071.78 1319.16 2082.95C1319.16 2094.03 1317.12 2103.81 1313.05 2112.28C1308.98 2120.71 1303.32 2127.32 1296.08 2132.1C1288.88 2136.88 1280.57 2139.27 1271.15 2139.27ZM1271.15 2127.7C1278.73 2127.7 1285.14 2125.66 1290.4 2121.59C1295.65 2117.52 1299.63 2112.09 1302.33 2105.32C1305.07 2098.55 1306.45 2091.1 1306.45 2082.95C1306.45 2074.81 1305.07 2067.33 1302.33 2060.51C1299.63 2053.69 1295.65 2048.22 1290.4 2044.1C1285.14 2039.98 1278.73 2037.92 1271.15 2037.92C1263.62 2037.92 1257.21 2039.98 1251.9 2044.1C1246.65 2048.22 1242.65 2053.69 1239.9 2060.51C1237.2 2067.33 1235.85 2074.81 1235.85 2082.95C1235.85 2091.1 1237.2 2098.55 1239.9 2105.32C1242.65 2112.09 1246.65 2117.52 1251.9 2121.59C1257.16 2125.66 1263.57 2127.7 1271.15 2127.7ZM1468.01 2027.91V2039.84H1415.81V2137H1403.16V2027.91H1468.01ZM1531.31 2139.27C1521.88 2139.27 1513.55 2136.88 1506.31 2132.1C1499.11 2127.32 1493.47 2120.71 1489.4 2112.28C1485.33 2103.81 1483.29 2094.03 1483.29 2082.95C1483.29 2071.78 1485.33 2061.95 1489.4 2053.48C1493.47 2044.95 1499.11 2038.33 1506.31 2033.59C1513.55 2028.81 1521.88 2026.42 1531.31 2026.42C1540.73 2026.42 1549.04 2028.81 1556.23 2033.59C1563.43 2038.37 1569.07 2045 1573.14 2053.48C1577.26 2061.95 1579.32 2071.78 1579.32 2082.95C1579.32 2094.03 1577.28 2103.81 1573.21 2112.28C1569.14 2120.71 1563.48 2127.32 1556.23 2132.1C1549.04 2136.88 1540.73 2139.27 1531.31 2139.27ZM1531.31 2127.7C1538.88 2127.7 1545.3 2125.66 1550.55 2121.59C1555.81 2117.52 1559.79 2112.09 1562.48 2105.32C1565.23 2098.55 1566.6 2091.1 1566.6 2082.95C1566.6 2074.81 1565.23 2067.33 1562.48 2060.51C1559.79 2053.69 1555.81 2048.22 1550.55 2044.1C1545.3 2039.98 1538.88 2037.92 1531.31 2037.92C1523.78 2037.92 1517.36 2039.98 1512.06 2044.1C1506.8 2048.22 1502.8 2053.69 1500.06 2060.51C1497.36 2067.33 1496.01 2074.81 1496.01 2082.95C1496.01 2091.1 1497.36 2098.55 1500.06 2105.32C1502.8 2112.09 1506.8 2117.52 1512.06 2121.59C1517.31 2125.66 1523.73 2127.7 1531.31 2127.7ZM1649.68 2139.27C1639.93 2139.27 1631.43 2136.83 1624.19 2131.96C1616.99 2127.08 1611.4 2120.4 1607.42 2111.93C1603.45 2103.45 1601.46 2093.79 1601.46 2082.95C1601.46 2072.01 1603.47 2062.28 1607.5 2053.76C1611.57 2045.24 1617.2 2038.56 1624.4 2033.73C1631.6 2028.86 1639.95 2026.42 1649.47 2026.42C1656.76 2026.42 1663.37 2027.84 1669.29 2030.68C1675.2 2033.47 1680.08 2037.43 1683.92 2042.54C1687.8 2047.61 1690.24 2053.52 1691.23 2060.3H1678.45C1677.12 2054.14 1673.93 2048.88 1668.86 2044.53C1663.84 2040.12 1657.45 2037.92 1649.68 2037.92C1642.72 2037.92 1636.57 2039.82 1631.22 2043.61C1625.87 2047.35 1621.68 2052.58 1618.65 2059.3C1615.66 2065.98 1614.17 2073.72 1614.17 2082.53C1614.17 2091.38 1615.64 2099.22 1618.57 2106.03C1621.51 2112.8 1625.63 2118.11 1630.93 2121.94C1636.28 2125.78 1642.53 2127.7 1649.68 2127.7C1654.51 2127.7 1658.92 2126.8 1662.89 2125C1666.92 2123.15 1670.28 2120.55 1672.98 2117.18C1675.72 2113.82 1677.57 2109.82 1678.52 2105.18H1691.3C1690.36 2111.76 1688.01 2117.63 1684.27 2122.8C1680.58 2127.91 1675.77 2131.93 1669.85 2134.87C1663.98 2137.8 1657.26 2139.27 1649.68 2139.27ZM1709.38 2039.84V2027.91H1794.6V2039.84H1758.53V2137H1745.88V2039.84H1709.38ZM1886.95 2137V2039.63H1856.91C1849.1 2039.68 1843.15 2041.31 1839.08 2044.53C1835.06 2047.75 1833.05 2052.55 1833.05 2058.95C1833.05 2065.34 1834.96 2070.14 1838.8 2073.36C1842.63 2076.54 1848.22 2078.12 1855.56 2078.12H1890.5V2090.05H1855.56C1848.03 2090.05 1841.64 2088.85 1836.38 2086.43C1831.18 2084.02 1827.2 2080.49 1824.45 2075.85C1821.71 2071.21 1820.33 2065.57 1820.33 2058.95C1820.33 2052.27 1821.73 2046.64 1824.52 2042.04C1827.36 2037.4 1831.51 2033.9 1836.95 2031.53C1842.44 2029.12 1849.1 2027.91 1856.91 2027.91H1899.03V2137H1886.95ZM1813.44 2137L1844.84 2082.74H1858.69L1827.29 2137H1813.44ZM1942.74 2138.07C1939.95 2138.07 1937.53 2137.07 1935.5 2135.08C1933.51 2133.05 1932.51 2130.63 1932.51 2127.84C1932.51 2125 1933.51 2122.58 1935.5 2120.59C1937.53 2118.61 1939.95 2117.61 1942.74 2117.61C1945.58 2117.61 1948 2118.61 1949.98 2120.59C1951.97 2122.58 1952.97 2125 1952.97 2127.84C1952.97 2129.68 1952.49 2131.39 1951.55 2132.95C1950.65 2134.51 1949.42 2135.77 1947.85 2136.72C1946.34 2137.62 1944.63 2138.07 1942.74 2138.07Z" fill="black"/>
<path d="M690.086 1692.77H1498.27V1706.41H690.086V1692.77Z" fill="black"/>
<path d="M1254.81 2847H1244.37L1284.06 2737.91H1294.71L1334.39 2847H1323.95L1289.76 2750.85H1289.01L1254.81 2847ZM1262.32 2805.19H1316.44V2814.13H1262.32V2805.19ZM1341.42 2870.28V2838.05H1348.51C1350.28 2836.06 1351.83 2833.91 1353.14 2831.61C1354.46 2829.3 1355.59 2826.67 1356.55 2823.72C1357.55 2820.74 1358.38 2817.28 1359.06 2813.34C1359.73 2809.36 1360.3 2804.72 1360.76 2799.43L1363.74 2765.18H1412.16V2838.05H1424.31V2870.28H1414.83V2847H1350.96V2870.28H1341.42ZM1359.43 2838.05H1402.68V2774.13H1372.59L1370.14 2799.43C1369.28 2808.03 1368.08 2815.52 1366.51 2821.91C1364.95 2828.3 1362.59 2833.68 1359.43 2838.05ZM1485.15 2833.74L1515.89 2765.18H1525.1L1488.93 2847H1481.37L1445.63 2765.18H1454.68L1485.15 2833.74ZM1451.86 2765.18V2847H1442.38V2765.18H1451.86ZM1518.44 2847V2765.18H1527.93V2847H1518.44ZM1562.6 2833.52L1605.8 2765.18H1617.15V2847H1607.67V2778.66L1564.63 2847H1553.12V2765.18H1562.6V2833.52ZM1697.42 2801.67V2810.62H1649.32V2801.67H1697.42ZM1651.67 2765.18V2847H1642.18V2765.18H1651.67ZM1704.4 2765.18V2847H1694.92V2765.18H1704.4ZM1739.12 2833.52L1782.32 2765.18H1793.66V2847H1784.18V2778.66L1741.14 2847H1729.63V2765.18H1739.12V2833.52ZM1850.66 2848.7C1843.34 2848.7 1836.97 2846.88 1831.53 2843.22C1826.14 2839.56 1821.95 2834.55 1818.96 2828.2C1815.98 2821.84 1814.49 2814.6 1814.49 2806.46C1814.49 2798.26 1816 2790.96 1819.02 2784.57C1822.07 2778.18 1826.3 2773.17 1831.69 2769.55C1837.09 2765.89 1843.36 2764.06 1850.5 2764.06C1855.97 2764.06 1860.92 2765.13 1865.36 2767.26C1869.8 2769.35 1873.46 2772.32 1876.33 2776.15C1879.24 2779.95 1881.07 2784.39 1881.82 2789.47H1872.23C1871.24 2784.86 1868.84 2780.91 1865.04 2777.65C1861.28 2774.34 1856.48 2772.69 1850.66 2772.69C1845.44 2772.69 1840.82 2774.11 1836.81 2776.95C1832.8 2779.76 1829.65 2783.68 1827.38 2788.73C1825.14 2793.73 1824.02 2799.54 1824.02 2806.14C1824.02 2812.78 1825.13 2818.66 1827.33 2823.78C1829.53 2828.85 1832.62 2832.83 1836.6 2835.71C1840.61 2838.58 1845.3 2840.02 1850.66 2840.02C1854.28 2840.02 1857.58 2839.35 1860.57 2838C1863.58 2836.61 1866.11 2834.66 1868.13 2832.14C1870.19 2829.62 1871.57 2826.62 1872.28 2823.14H1881.87C1881.16 2828.07 1879.4 2832.48 1876.6 2836.35C1873.83 2840.18 1870.22 2843.2 1865.79 2845.4C1861.38 2847.6 1856.34 2848.7 1850.66 2848.7ZM1895.43 2774.13V2765.18H1959.35V2774.13H1932.29V2847H1922.81V2774.13H1895.43ZM1979.39 2877.68V2765.18H1988.61V2780.79H1989.72C1990.86 2778.34 1992.42 2775.84 1994.41 2773.28C1996.4 2770.69 1999.03 2768.5 2002.3 2766.73C2005.6 2764.95 2009.75 2764.06 2014.76 2764.06C2021.51 2764.06 2027.4 2765.84 2032.44 2769.39C2037.52 2772.91 2041.46 2777.84 2044.27 2784.2C2047.11 2790.52 2048.53 2797.89 2048.53 2806.3C2048.53 2814.76 2047.11 2822.16 2044.27 2828.52C2041.46 2834.87 2037.52 2839.83 2032.44 2843.38C2027.4 2846.93 2021.54 2848.7 2014.87 2848.7C2009.93 2848.7 2005.79 2847.82 2002.46 2846.04C1999.15 2844.27 1996.47 2842.08 1994.41 2839.49C1992.39 2836.86 1990.83 2834.3 1989.72 2831.82H1988.87V2877.68H1979.39ZM1988.77 2806.14C1988.77 2812.75 1989.74 2818.61 1991.7 2823.72C1993.68 2828.8 1996.53 2832.8 2000.22 2835.71C2003.95 2838.58 2008.46 2840.02 2013.75 2840.02C2019.18 2840.02 2023.76 2838.53 2027.49 2835.55C2031.26 2832.53 2034.11 2828.46 2036.07 2823.35C2038.06 2818.24 2039.05 2812.5 2039.05 2806.14C2039.05 2799.86 2038.07 2794.19 2036.12 2789.15C2034.2 2784.11 2031.36 2780.11 2027.6 2777.17C2023.83 2774.18 2019.22 2772.69 2013.75 2772.69C2008.42 2772.69 2003.89 2774.13 2000.16 2777.01C1996.44 2779.85 1993.6 2783.79 1991.64 2788.83C1989.72 2793.84 1988.77 2799.61 1988.77 2806.14ZM2092.18 2848.86C2087.25 2848.86 2082.74 2847.91 2078.65 2845.99C2074.57 2844.03 2071.32 2841.23 2068.91 2837.57C2066.49 2833.88 2065.28 2829.4 2065.28 2824.15C2065.28 2820.1 2066.05 2816.69 2067.57 2813.92C2069.1 2811.15 2071.27 2808.88 2074.07 2807.1C2076.88 2805.33 2080.2 2803.92 2084.03 2802.89C2087.87 2801.87 2092.09 2801.07 2096.71 2800.5C2101.29 2799.93 2105.16 2799.43 2108.32 2799.01C2111.52 2798.58 2113.95 2797.91 2115.62 2796.98C2117.29 2796.06 2118.12 2794.57 2118.12 2792.51V2790.59C2118.12 2785.01 2116.46 2780.63 2113.12 2777.43C2109.82 2774.2 2105.06 2772.59 2098.84 2772.59C2092.95 2772.59 2088.14 2773.88 2084.41 2776.47C2080.71 2779.07 2078.12 2782.12 2076.63 2785.64L2067.63 2782.39C2069.47 2777.91 2072.03 2774.34 2075.3 2771.68C2078.57 2768.98 2082.22 2767.05 2086.27 2765.87C2090.32 2764.67 2094.42 2764.06 2098.58 2764.06C2101.7 2764.06 2104.95 2764.47 2108.32 2765.29C2111.73 2766.11 2114.89 2767.53 2117.81 2769.55C2120.72 2771.54 2123.08 2774.33 2124.89 2777.91C2126.7 2781.46 2127.61 2785.97 2127.61 2791.44V2847H2118.12V2834.06H2117.54C2116.4 2836.47 2114.72 2838.81 2112.48 2841.09C2110.24 2843.36 2107.44 2845.22 2104.06 2846.68C2100.69 2848.14 2096.73 2848.86 2092.18 2848.86ZM2093.46 2840.18C2098.5 2840.18 2102.87 2839.06 2106.57 2836.83C2110.26 2834.59 2113.1 2831.62 2115.09 2827.93C2117.11 2824.2 2118.12 2820.1 2118.12 2815.63V2803.8C2117.41 2804.48 2116.22 2805.08 2114.56 2805.61C2112.92 2806.14 2111.02 2806.62 2108.86 2807.05C2106.73 2807.44 2104.59 2807.78 2102.46 2808.06C2100.33 2808.35 2098.42 2808.59 2096.71 2808.81C2092.09 2809.38 2088.15 2810.26 2084.89 2811.47C2081.62 2812.68 2079.12 2814.35 2077.38 2816.48C2075.64 2818.57 2074.77 2821.27 2074.77 2824.57C2074.77 2829.55 2076.54 2833.4 2080.09 2836.13C2083.64 2838.83 2088.1 2840.18 2093.46 2840.18ZM2214.88 2765.18V2838H2223.57V2873.47H2214.09V2847H2152.93V2765.18H2162.47V2838.05H2205.35V2765.18H2214.88ZM2253.28 2833.52L2296.48 2765.18H2307.82V2847H2298.34V2778.66L2255.3 2847H2243.8V2765.18H2253.28V2833.52ZM2382.08 2847V2773.97H2359.54C2353.69 2774.01 2349.23 2775.23 2346.17 2777.65C2343.16 2780.06 2341.65 2783.67 2341.65 2788.46C2341.65 2793.25 2343.08 2796.86 2345.96 2799.27C2348.84 2801.65 2353.03 2802.84 2358.53 2802.84H2384.74V2811.79H2358.53C2352.89 2811.79 2348.09 2810.88 2344.15 2809.07C2340.24 2807.26 2337.26 2804.62 2335.2 2801.14C2333.14 2797.66 2332.11 2793.43 2332.11 2788.46C2332.11 2783.45 2333.16 2779.23 2335.25 2775.78C2337.39 2772.3 2340.49 2769.67 2344.58 2767.9C2348.7 2766.09 2353.69 2765.18 2359.54 2765.18H2391.13V2847H2382.08ZM2326.94 2847L2350.49 2806.3H2360.88L2337.33 2847H2326.94Z" fill="black"/>
</svg>
